<svg xmlns="http://www.w3.org/2000/svg" width="72" height="96" viewBox="0 0 72 96" fill="none">
    <ellipse cx="36" cy="80" rx="20" ry="6" fill="#000000" opacity="0.08" />
    <path d="M36 0C23 0 12.5 10.5 12.5 23.5C12.5 40.5 36 66 36 66C36 66 59.5 40.5 59.5 23.5C59.5 10.5 49 0 36 0Z" fill="#6CD4A5" />
    <g transform="translate(20,12)">
        <rect x="6" y="8" width="3" height="22" rx="1" fill="#FFFFFF" />
        <rect x="6" y="2" width="3" height="4" rx="1" fill="#FFFFFF" />
        <rect x="10" y="2" width="3" height="4" rx="1" fill="#FFFFFF" />
        <path d="M30 6 L28 8 L28 30 L31 30 L34 12 L34 8 Z" fill="#FFFFFF" />
    </g>
</svg>
